<?xml version="1.0" encoding="utf-8" ?><svg xmlns="http://www.w3.org/2000/svg" xmlns:xlink="http://www.w3.org/1999/xlink" width="1385" height="1407" viewBox="0 0 1385 1407"><path d="M941.324 31.5132C947.263 28.2196 954.759 22.9901 960.659 20.2128C977.072 12.4863 996.685 9.85804 1014.54 9.72721C1047.25 9.48752 1073.14 21.0802 1097.22 42.8056C1103.66 48.6123 1109.06 54.7763 1115.2 60.8741C1122.16 61.1723 1129.26 60.807 1136.43 61.2209C1165.02 62.8734 1188.97 78.8763 1205.33 101.827C1209.55 107.751 1213.63 117.788 1218.39 122.375C1221.11 124.996 1229.77 130.024 1233.48 132.561C1243.38 139.252 1252.39 147.18 1260.29 156.153C1274.65 172.552 1287.74 197.792 1291.84 219.241C1292.9 224.803 1293.1 240.123 1295.45 244.161C1300.47 252.746 1307.7 260.075 1313.12 268.555C1351.23 328.107 1341.75 418.288 1291.32 468.195C1280.61 478.794 1271.03 485.562 1260.21 495.032C1301.8 495.652 1340.26 474.08 1359.37 436.603C1362.79 429.899 1363.97 414.089 1369.59 412.748C1378.66 415.724 1375.88 434.698 1375.04 442.291C1370.92 476.526 1361.27 510.283 1333.04 532.437C1307.34 552.605 1283.51 555.101 1252.17 551.731L1249.53 551.495L1249.52 552.286C1251.27 553.685 1253.05 555.045 1254.86 556.367C1300.55 589.619 1333.94 647.181 1335.13 703.723C1335.79 734.835 1329.19 763.533 1312.99 790.371C1309.7 795.829 1301.66 809.386 1294.77 809.501C1289.04 806.488 1293.63 786.225 1294.12 779.434C1296.12 751.952 1291.54 725.669 1282.74 699.71C1268.95 659.058 1241.91 626.599 1220.36 590.099C1222.47 599.139 1225.27 608.132 1227.47 617.306C1237.93 660.921 1243.87 706.483 1247.33 751.179C1249.12 774.331 1252.42 796.727 1254.32 819.491C1257.24 853.993 1257.26 888.679 1254.36 923.183C1244.07 1041.88 1199.11 1143.21 1084.38 1189.78C1066.48 1197.05 1048.61 1203.17 1029.5 1206.43C1026.71 1206.91 1021.66 1208.29 1019.54 1210.07C1020.14 1211.97 1024.64 1213.98 1026.47 1214.86C1039.39 1221.01 1042.72 1222.98 1052.41 1233.54C1066.73 1249.28 1074.15 1270.1 1072.99 1291.35C1072.18 1307.05 1065.07 1328.36 1053.59 1340.3C1052.19 1341.75 1050.59 1341.78 1048.84 1341.54C1048.12 1340.72 1046.96 1339.6 1047.08 1338.4C1050.87 1301.9 1038.19 1276.44 1007.67 1253.9C998.435 1288.9 966.804 1350.47 929.868 1361.27C932.661 1352.92 940.864 1342.68 944.855 1334.24C956.334 1309.95 964.808 1284.5 969.374 1258.08C947.53 1303.74 911.355 1352.1 865.251 1376.46C856.411 1381.13 831.827 1391.46 821.842 1389.51C813.604 1384.36 826.571 1369.98 830.582 1364.48C848.339 1340.13 856.889 1310.53 864.902 1281.86C867.666 1271.97 869.082 1261.83 872.456 1252.11C773.2 1325.97 637.645 1358.19 515.177 1350.12C422.117 1343.98 316.021 1315.92 246.547 1250.3C247.449 1259.65 247.228 1269.51 248.129 1278.66C251.627 1314.16 262.237 1348.71 285.768 1376.18C288.023 1378.81 290.975 1383.32 289.52 1386.79C275.653 1396.99 221.372 1365.41 209.819 1356.43C158.354 1316.39 138.792 1257.13 131.641 1194.73C124.006 1241.06 127.746 1295.57 156.282 1334.34C158.562 1337.44 163.682 1341.08 164.266 1344.6C163.321 1346.04 163.204 1346.51 161.389 1346.84C152.849 1348.38 139.783 1337.96 133.988 1332.86C123.516 1323.63 115.306 1311.55 108.595 1299.37C57.7711 1207.16 114.003 1086.73 104.304 987.188C102.902 972.795 93.4223 958.633 87.9752 945.405C83.1703 933.738 78.8808 921.492 75.2167 909.418C67.6145 884.611 63.3796 858.895 62.6258 832.961C62.3117 820.47 63.2311 808.352 62.4767 795.862C50.6368 834.238 48.79 890.138 54.5349 930.395C55.8474 939.593 69.6667 969.82 65.4244 974.904C60.0855 976.59 55.7531 971.402 52.5293 967.62C35.8586 948.061 27.118 925.717 20.5054 901.284C11.0188 866.018 7.92993 829.336 11.3854 792.98C13.1058 775.57 16.6712 759.348 19.4536 742.186C22.9525 720.604 27.876 701.144 34.4309 680.216C53.8257 616.874 82.0956 556.598 118.398 501.185C130.49 482.891 143.722 465.443 156.73 447.8C170.945 428.521 184.624 404.887 199.444 386.504C244.013 331.216 301.424 283.609 364.277 250.846C466.946 198.101 581.956 174.07 697.154 181.292C710.71 182.193 741.512 183.752 753.741 187.616C707.107 141.517 731.122 65.4078 779.499 30.5145C785.155 26.4352 810.919 10.0393 816.629 16.6026C818.103 23.459 807.889 33.415 803.658 40.8408C790.336 64.2251 785.35 93.3085 788.8 119.867C790.14 130.19 793.608 143.338 796.324 153.445C801.695 118.246 818.488 84.2362 844.873 60.0151C870.259 36.7109 906.886 20.2184 941.324 31.5132ZM36.7629 905.84C37.5423 876.856 37.0805 847.603 43.0998 819.086C45.4206 808.09 48.6527 797.258 51.1153 786.236C58.3932 753.661 72.6647 722.479 87.1619 692.558C90.908 684.826 100.998 657.721 106.272 653.515L107.185 653.782C106.806 658.676 100.63 675.759 99.1745 682.092C78.6051 771.618 65.8243 869.256 111.352 953.706C114.56 959.658 124.224 982.867 130.328 983.951C136.384 978.943 135.069 967.041 137.148 959.354C140.546 946.888 145.81 934.444 151.149 922.837C153.077 918.646 165.09 899.319 164.819 896.525C162.206 869.542 159.287 843.386 160.962 816.062C163.074 781.622 169.551 746.935 178.448 713.593C181.736 701.75 184.205 689.086 188.467 677.547C198.468 650.471 209.603 622.813 225.114 598.384C229.31 591.777 236.813 578.119 243.242 574.01L243.921 574.433C242.768 581.089 236.068 591.219 233.27 597.964C213.31 646.08 203.204 700.836 199.039 752.66C204.58 741.344 212.734 723.529 219.105 713.23C234.433 688.451 253.931 664.901 267.919 639.059C285.818 605.991 303.197 572.636 320.082 539.038C325.335 528.585 331.81 518.544 337.535 508.377L368.787 452.973C380.497 432.592 390.843 410.928 404.675 391.836C412.403 381.169 442.288 344.116 455.93 346.665C456.219 350.741 446.003 358.897 442.987 362.231C324.372 493.332 325.882 742.599 453.769 865.804C431.163 820.197 405.035 733.483 418.181 683.151L418.56 684.07C421.864 692.203 425.307 705.434 427.948 714.182C431.751 727.035 436.183 739.694 441.227 752.112C463.427 807.726 512.198 862.436 567.442 886.387C571.401 888.089 575.404 889.685 579.448 891.174C586.838 884.02 597.211 874.553 603.887 867.074C572.43 800.153 545.153 667.269 558.235 594.309C563.876 620.703 566.931 647.495 573.199 673.679C577.383 691.156 584.043 709.154 588.491 726.567C589.195 719.261 589.918 711.858 590.883 704.536C597.266 656.082 596.685 606.658 599.676 557.883C600.56 543.467 598.687 528.848 598.408 514.466C598.262 502.112 599.377 487.123 599.991 474.59C612.981 508.813 611.634 546.538 620.425 581.529C624.402 597.356 633.623 614.678 640.663 629.319C661.607 672.915 691.7 710.129 723.897 745.852C731.128 753.875 735.901 758.708 745.997 762.752C756.325 766.89 826.714 787.558 818.195 804.307C817.247 804.919 816.446 805.718 815.218 805.203C801.24 799.353 788.19 794.63 773.596 790.506C790.148 803.953 821.124 821.602 842.183 824.855C833.089 815.811 821.669 798.361 813.909 787.455C788.232 751.369 751.683 699.123 741.357 656.314C747.639 661.95 752.718 672.334 756.762 679.823C781.98 726.514 816.252 765.939 848.234 807.773C853.155 775.314 841.51 704.601 832.824 672.618C814.662 605.745 785.207 532.706 745.886 475.386C732.853 456.731 704.229 427.524 687.676 412.12C752.371 436.934 812.415 548.852 839.328 609.181C892.317 727.963 908.201 840.527 906.528 969.38C912.153 968.204 925.777 964.631 929.575 970.688C931.315 981.47 913.081 989.728 905.197 993.23C903.284 1013.6 901.223 1033.07 897.346 1053.32C889.443 1094.61 880.43 1135.67 856.849 1171.23C856.93 1171.49 857.011 1171.76 857.092 1172.02C869.96 1159.21 878.718 1145.03 888.974 1130.53C915.238 1093.41 926.073 1052.33 936.306 1008.68C937.093 1005.33 943.067 970.747 943.129 970.641C947.244 975.953 941.555 1020.09 940.375 1029.43C935.431 1066.21 927.279 1102.48 916.013 1137.83C911.791 1151.39 904.771 1167.03 901.403 1180.36C897.338 1196.44 894.358 1216.36 891.849 1233.02C886.271 1270.06 877.29 1305.61 862.296 1340.04C858.851 1347.95 853.646 1359.49 848.288 1366.02C920.499 1332.43 968.005 1244.5 981.377 1168.61C983.496 1156.58 983.538 1144.57 986.08 1132.43C999.336 1170.18 984.212 1255.6 973.278 1293.99C987.09 1269.77 993.242 1244.52 1001.1 1218.17C1014.15 1174.39 1016.93 1130.29 1019.34 1084.79C1023.12 1007.35 1022.21 929.762 1016.62 852.438C1014.81 824.819 1013.9 791.554 1009.85 764.664C995.792 671.18 968.269 570.064 915.032 490.906C868.344 421.487 806.148 356.031 725.005 330.331C717.199 327.859 702.692 325.614 696.129 322.535L695.895 321.136C702.502 312.533 724.405 318.026 733.152 320.373C811.244 341.327 870.193 406.623 918.158 468.06C950.403 509.361 978.953 550.434 1001.08 598.069C1009.17 615.269 1015.82 631.337 1022.72 649.099C1030.46 669.038 1040.46 691.282 1047.08 711.531C1054.49 702.45 1067.81 687.26 1073.67 677.524C1112.38 613.24 1131.1 533.373 1125.94 458.624C1125.22 448.208 1121.11 424.733 1117.2 416.564C1108.92 399.268 1082.78 370.307 1068.88 356.837C1074.85 384.806 1068.45 435.178 1060.39 462.586C1057.71 471.715 1044.88 496.396 1039.39 505.167C1032.8 515.704 1018.48 533.483 1005.41 536.182C1003.78 536.519 1002.49 536.948 1001.14 536.209C1024.66 506.841 1042.49 476.438 1050.23 439.558C1055.81 413.78 1061.15 389.956 1057.45 363.42C1054.64 343.32 1053.1 339.812 1036.99 327.212C1002.77 300.442 961.975 269.83 920.906 255.256C848.889 229.697 768.751 228.907 696.538 253.734C682.48 258.567 661.205 268.336 647.818 270.364C665.847 248.147 719.194 231.472 747.428 227.356C765.945 224.657 793.119 222.225 811.87 222.694C816.11 223.398 818.081 223.44 822.265 222.784L821.84 222.135L819.375 221.932C807.221 219.291 795.028 216.054 782.897 213.672C770.198 211.178 756.587 211.494 743.971 210.212C671.58 202.859 594.078 224.557 540.145 274.369C537.845 276.493 529.32 286.43 527.018 287.105C519.608 281.66 531.491 263.891 536 258.788C558.536 233.287 590.955 216.939 622.977 206.591C633.584 203.161 643.903 201.569 653.673 198.617C640.928 198.756 628.175 197.559 615.558 198.141C536.657 201.78 443.902 226.427 374.3 263.592C355.095 274.095 336.481 285.641 318.54 298.18C292.438 316.06 275.654 328.727 253.078 351.77C242.861 362.181 232.866 372.807 223.102 383.644C231.433 377.972 239.896 371.765 248.002 365.735C279.339 342.427 315.794 324.336 353.133 312.961C359.223 311.105 389.302 302.081 386.948 316.669C381.37 323.298 368.219 321.127 360.904 323.66C168.816 390.179 52.3444 600.852 27.4029 793.386C23.5749 822.936 29.0226 877.59 36.7629 905.84ZM249.4 1227.24C263.944 1244.37 282.17 1257.78 300.997 1269.6C372.07 1314.24 459.889 1330.36 542.445 1336.57C558.088 1337.75 567.509 1335.67 582.813 1334.58C662.275 1329.51 739.829 1308.06 810.594 1271.56C828.721 1262.19 866.27 1241.81 876.395 1224.6C881.979 1215.11 884.51 1167.01 885.797 1154.51C871.37 1172.59 852.055 1195.9 827.467 1199.89C825.487 1200.21 824.772 1200.26 823.157 1199.44C823.073 1193.74 837.838 1175.44 841.357 1169.98C870.272 1125.07 885.303 1071.18 887.97 1018.04C888.156 1014.32 889.598 999.609 888.155 996.893C880.521 1000.14 875.638 1001.78 867.519 1003.63C861.324 1202.6 611.955 1243.59 547.969 1056.79C544.094 1045.47 541.888 1032.02 539.632 1020.24C528.824 1010.23 504.947 1004.37 490.235 1004.96C477.945 1005.45 459.953 1010.3 449.596 1016.72C447.71 1030.15 446.059 1041.34 442.51 1054.56C417.462 1147.86 323.707 1203.09 232.295 1161.81C228.223 1159.97 224.095 1158.24 220.189 1156C223.267 1184.96 230.361 1204.24 249.4 1227.24ZM717.705 1160.94C758.975 1155.78 792.91 1136.1 818.36 1102.44C842.215 1070.9 856.398 1029.18 850.831 988.176C840.272 910.409 772.736 845.011 691.548 850.715C691.327 850.748 691.106 850.781 690.885 850.814C654.812 853.302 618.765 872.725 595.358 900.015C565.037 935.367 553.288 972.663 556.918 1018.81C560.484 1060.79 580.476 1099.66 612.549 1126.97C641.199 1151.33 676.369 1164.47 714.223 1161.26C715.384 1161.16 716.545 1161.05 717.705 1160.94ZM196.662 865.258C204.797 860.546 214.296 854.265 222.452 850.254C255.373 833.9 293.129 830.12 328.638 839.622C370.045 850.738 406.909 882.336 427.69 919.355C441.398 943.773 446.714 971.306 448.421 998.904C477.651 985.582 501.502 985.803 531.704 996.383C534.124 997.23 539.412 1001.24 540.68 1001.17C540.86 973.326 545.923 950.618 559.027 925.565C562.713 918.517 569.079 909.336 572.177 903.02C507.892 875.572 473.837 842.583 438.075 783.183L438.305 784.499C442.684 808.985 459.448 844.345 469.809 867.323C472.505 873.303 481.624 887.596 481.399 891.172C477.96 895.831 472.005 891.639 467.76 889.621C450.191 881.27 437.282 866.631 424.044 852.866C371.799 795.505 345.816 718.286 341.269 641.676C340.399 627.017 340.536 613.263 340.513 598.604C340.508 595.191 340.817 584.69 340.52 581.796C332.019 594.468 323.273 606.511 314.939 619.34C274.191 682.07 234.27 745.629 211.438 817.405C206.319 833.496 199.771 848.348 196.662 865.258ZM186.354 910.522C189.377 923.375 190.691 942.377 195.751 953.666C198.238 952.076 205.073 947.917 206.849 945.986C215.491 936.593 220.618 928.302 230.398 919.604C227.697 916.416 216.354 904.77 223.643 900.332C229.129 896.992 239.176 904.454 245.158 903.224C252.247 902.038 259.198 898.638 265.894 896.228C287.988 888.277 309.019 887.247 331.409 895.395C358.076 905.1 385.288 925.311 397.211 951.986C397.531 952.703 397.584 953.171 397.712 953.879C396.153 954.41 396.963 954.251 395.111 953.827C394.679 956.223 396.938 964.535 396.968 968.401C397.512 972.284 394.094 976.45 394.544 980.094C395.596 988.615 396.532 996.359 396.99 1005.04C398.471 1033.71 392.997 1070.4 368.551 1088.99C357.214 1097.61 335.593 1098.42 322.049 1095.75C299.736 1091.35 288.548 1079.29 278.792 1059.75C258.294 1011.82 259.88 979.147 280.835 932.351L280.351 931.818C263.179 937.687 247.012 953.263 238.964 969.407C232.824 981.722 231.65 996.74 233.877 1010.2C234.926 1016.53 236.771 1023.17 237.458 1029.57C227.689 1020.47 219.989 1009.38 214.88 997.047C208.983 983.187 208.313 975.022 197.858 963.863C206.145 1001.13 215.6 1036.5 217.543 1074.93C218.128 1086.49 219.297 1097.83 218.615 1109.49C218.157 1117.32 216.469 1125.5 216.361 1133.22C235.054 1151.02 273.399 1160.21 298.637 1159.54C332.415 1158.52 364.405 1144.13 387.572 1119.53C417.922 1087.34 435.745 1043.09 433.341 999.952C428.866 919.676 367.352 846.744 283.507 850.621C281.747 850.703 282.996 850.598 281.123 850.808C244.43 853.429 210.347 870.745 186.594 898.834C159.912 930.022 146.551 970.273 149.13 1011.37C150.57 1034.33 157.743 1053.3 166.411 1074.26C166.461 1069.16 166.866 1055.59 165.634 1050.78C161.072 1032.95 143.05 996.446 157.518 980.189C160.293 977.071 165.888 975.041 170.008 973.91C167.125 947.57 164.033 930.029 186.354 910.522ZM986.686 237.141C1019.33 254.526 1039.43 265.594 1059.58 297.853C1080.44 300.898 1115.19 293.535 1133.69 282.979C1147.12 275.479 1156.08 267.548 1164.04 253.998C1165.72 251.136 1166.75 247.887 1168.34 245.023C1169.31 261.14 1161.37 295.689 1151.04 307.425C1150.22 308.342 1149.4 309.249 1148.56 310.143C1182.43 288.488 1201.75 261.198 1210.29 221.645C1215.42 198.585 1214.96 174.636 1208.97 151.788C1208.01 148.181 1205.73 140.088 1203.58 137.295C1189.79 119.392 1153.7 114.159 1133.37 117.066C1102.08 120.44 1070.49 134.61 1045.04 152.965C1018.41 172.164 995.321 205.317 986.686 237.141ZM916.762 102.256C918.459 111.922 917.363 117.762 917.268 127.438C917.156 138.878 917.791 153.52 920.725 164.495C925.898 183.725 938.586 200.066 955.935 209.842C957.179 145.826 1034.08 72.5295 1097.21 66.8458C1096.94 66.4496 1096.66 66.0596 1096.38 65.6762C1081.54 45.8642 1045.7 28.1768 1021.38 25.548C989.778 22.1313 962.515 33.2356 937.85 52.0183C914.618 69.7091 903.993 107.418 900.26 134.815C899.444 141.272 898.456 153.567 900.005 159.872C900.602 153.502 901.309 149.314 902.545 143.008C905.874 128.972 910.638 115.316 916.762 102.256ZM1201.36 335.278C1225.26 326.523 1239.66 305.851 1250.06 282.865C1260.77 259.195 1270.71 215.93 1263.63 190.088C1260.44 178.44 1239.17 156.994 1229.47 149.471C1229.76 153.758 1230.47 160.189 1230.32 164.292C1229.73 180.02 1235.98 196.05 1236.62 211.292C1238.54 256.862 1210.48 313.665 1175.46 342.071C1186.51 340.14 1190.8 339.437 1201.36 335.278ZM1239.63 877.784C1223.13 988.376 1177.46 1087.79 1091.77 1162.39C1089.69 1164.19 1080.05 1171.97 1079.85 1173.57C1147.44 1140.65 1194.31 1095.13 1218.6 1023C1232.45 981.894 1239.31 946.113 1239.93 902.647C1240 897.725 1240.72 881.718 1239.63 877.784ZM782.771 190.322C788.896 193.427 795.242 195.027 801.852 196.84C773.775 152.689 766.653 121.379 776.616 68.5906C777.532 63.7346 783.104 50.1485 782.432 46.6628C765.742 58.2429 749.373 89.9325 746.257 110.049C742.804 132.343 745.639 151.665 758.732 170.435C765.377 179.961 772.97 184.602 782.771 190.322ZM815.234 877.582C811.654 875.52 808.513 873.575 804.681 871.998L804.152 872.156L804.332 872.67L804.909 871.863L804.573 873.03L805.442 871.972L805.89 872.099L805.197 873.753C806.754 875.052 814.485 881.724 815.526 882.361C846.971 915.531 857.246 937.742 865.958 981.928C872.926 978.981 883.283 977.136 888.491 973.361C891.042 968.322 890.913 924.342 890.499 916.261C878.381 906.623 855.509 899.91 840.865 891.815C833.951 887.993 821.531 880.468 815.234 877.582ZM707.099 783.391C696.118 782.987 685.121 783.326 674.185 784.406C664.635 785.327 645.794 789.337 637.586 782.769C630.144 776.814 647.279 766.772 652.103 765.492C664.093 761.62 676.611 758.548 689.16 758.781C664.307 726.88 641.521 685.613 625.807 648.56C624.011 644.325 618.738 634.533 617.782 631.192C618.534 664.611 617.217 697.698 616.826 731.101C616.786 734.577 616.499 738.208 616.299 741.695C614.89 763.467 613.754 785.256 612.89 807.057C611.977 827.275 609.199 838.866 617.024 858.297L617.99 857.982C624.149 855.914 629.612 852.545 635.246 849.738C673.379 830.742 723.083 829.29 761.98 847.114C765.462 848.71 769.05 850.186 772.538 851.867C776.311 853.719 780.059 855.624 783.779 857.581C778.685 853.093 772.544 848.385 767.747 843.9C755.259 832.974 743.265 821.496 731.8 809.5C725.467 802.786 713.487 788.673 707.099 783.391ZM1055.59 758.242L1057.74 761.934C1095.57 735.642 1112.48 673.995 1120.01 631.027C1121.15 624.5 1126.62 596.562 1125.76 591.473C1111.94 645.775 1087.37 701.149 1049.63 743.043C1051.17 748.659 1052.72 753.109 1055.59 758.242ZM1348.53 475.885C1342.81 481.114 1335.24 487.726 1328.63 491.797C1311.25 502.49 1292.02 512.155 1278.58 528.131C1288.88 528.57 1296.33 529.516 1306.43 526.767C1331.08 520.059 1344.43 497.641 1352.8 475.193C1353.54 473.55 1353.86 473.373 1353.63 471.658C1351.67 472.243 1350.03 474.334 1348.53 475.885ZM1310.14 762.267C1311.09 759.943 1312.17 757.45 1313 755.096C1315.83 742.279 1318.69 728.495 1319.22 715.192C1320.48 683.453 1310.48 649.72 1293.79 622.799C1291.05 618.387 1281.07 604.805 1277.41 601.466C1281.26 612.334 1285.48 623.302 1287.97 634.562C1291.38 649.942 1292.44 665.735 1295.39 681.187C1301.89 709.46 1307.58 733.112 1310.14 762.267ZM1038.41 989.078C1047.57 982.529 1054.23 978.101 1066.45 980.255C1074.35 981.686 1081.35 986.219 1085.9 992.845C1089.51 998.041 1093.99 1008.56 1091.87 1014.75L1090.98 1014.96C1088.46 1012.28 1087.03 1009.4 1085.02 1006.35C1073.1 988.31 1048.67 986.698 1037.38 1006.82L1033.13 1128.93L1032.2 1143.52C1112.53 1130.76 1156.41 1000.05 1087.22 948.071C1076.63 940.119 1065.21 936.136 1051.89 937.3C1048.65 937.778 1040.51 938.756 1039.05 941.259C1034.29 949.426 1037.37 980.283 1038.41 989.078ZM294.719 952.263C289.25 954.964 283.135 958.178 281.341 964.404C277.802 976.691 288.741 981.181 298.479 981.49C318.472 977.033 317.615 950.281 294.719 952.263ZM1294.11 436.229C1271.39 454.199 1250.08 463.392 1222.4 471.339C1217.62 472.713 1188.19 487.117 1185.84 489.873C1186.68 492.043 1187.1 492.223 1188.7 493.881C1206.26 498.588 1234.47 487.989 1249.56 479.391C1265.02 470.579 1278.74 459.493 1289.05 444.911C1290.46 442.925 1294.2 438.931 1294.59 436.734L1294.11 436.229ZM820.754 199.348C829.31 203.492 842.314 206.656 851.721 209.199C865.568 213.28 892.463 221.857 905.812 227.621C878.896 172.533 878.412 110.648 913.666 59.1151C915.546 56.3676 929.302 41.1628 929.55 40.2276C911.623 42.2105 900.73 44.284 884.104 52.4808C842.764 72.8617 807.903 127.964 813.565 174.721C814.628 183.262 817.055 191.576 820.754 199.348ZM367.79 1006.42C365.493 1014.85 365.401 1022.75 360.926 1030C344.463 1056.66 317.003 1039.92 311.414 1015.55C310.971 1013.61 309.535 1008.73 308.343 1007.6C300.341 1006.42 286.285 1017.69 280.964 1023.3C280.996 1035.14 285.521 1046.65 290.737 1057.14C305.567 1082.89 329.37 1095.63 359.806 1081.67C372.821 1075.7 378.208 1055.31 381.894 1043.02C386.4 1023.79 386.576 1014.99 367.79 1006.42ZM1115.1 75.1575C1046.09 82.3328 985.294 134.764 970.793 203.415C968.467 214.425 968.764 223.506 969.393 234.607C974.784 214.886 989.07 189.892 1001.95 174.235C1035.99 133.16 1079.39 110.122 1132.49 104.481C1157 101.878 1173.95 105.212 1195.65 116.432C1180.77 89.7428 1145.44 72.0719 1115.1 75.1575ZM140.941 1119.37C140.801 1168.79 147.138 1224.32 166.254 1270.32C184.934 1313.01 212.062 1346.31 255.581 1365.64C250.562 1362.05 246.254 1357.58 241.844 1353.28C197.506 1310.04 170.344 1237.23 160.37 1176.97C157.513 1159.71 155.228 1142.3 154.709 1124.8C154.345 1112.53 155.649 1099.54 153.776 1087.44C152.843 1081.42 149.247 1075.41 147.079 1069.73C139.929 1050.99 133.565 1031.65 133.147 1011.39C129.058 1008.67 127.291 1007.6 122.37 1006.09C121.554 1025.2 120.379 1047.87 117.587 1066.77C106.605 1141.1 93.648 1209.83 116.84 1283.62C115.216 1243.83 115.129 1200.33 125.712 1161.68C129.575 1147.57 136.596 1133.32 140.941 1119.37ZM1151.54 479.297C1150.8 488.584 1149.72 498.47 1148.48 507.698C1143.7 542.982 1145.32 579.28 1142.48 614.476C1137.21 679.955 1116.83 743.366 1092.73 804.062C1091.18 807.979 1089.42 812.54 1088.83 816.697C1091.3 812.889 1096.8 803.653 1099.23 800.64C1110.63 785.159 1129.63 758.236 1138.8 741.291C1170.73 682.653 1182.91 615.287 1173.53 549.182C1171.67 536.917 1159.14 487.294 1151.54 479.297Z"/><path d="M567.569 1187.93C571.034 1187.99 573.838 1188.14 576.141 1191.02C577.834 1197.47 569.074 1203.15 564.233 1205.72C531.323 1223.16 490.132 1223.49 457.83 1205C453.013 1201.39 448.353 1195.23 455.134 1190.79C461.615 1190.47 466.505 1198.11 474.361 1201.12C498.918 1210.95 525.901 1209.86 549.737 1198.48C555.771 1195.6 561.067 1190.88 567.569 1187.93Z"/><path d="M463.412 1096.23C466.064 1098.09 472.169 1110.88 470.543 1114.56L469.06 1115.12L467.499 1114.24C457.836 1108.83 452.45 1104.5 463.412 1096.23Z"/><path d="M718.297 975.797C739.381 973.954 762.594 977.786 781.673 987.023C788.191 985.526 810.402 975.581 814.596 979.785C813.616 985.549 807.997 990.221 804.547 995.87L804.127 996.573C816.216 1006.24 820.53 1006.88 835.196 1011.07C837.427 1011.7 838.991 1012.58 840.037 1014.71C839.133 1017.84 829.496 1022.73 825.608 1025.5C826.469 1029.74 829.23 1039.44 826.485 1042.64C822.98 1041.6 819.774 1040.43 816.431 1038.93C799.885 1031.54 782.094 1025.6 764.466 1021.18C727.823 1012.4 697.357 1015.12 662.031 1026.87C648.358 1031.42 639.615 1033.96 626.236 1040.45C627.022 1034.73 627.617 1028.89 630.305 1023.74C631.168 1022.09 631.488 1021.58 631.738 1019.74L627.855 1020.01L627.557 1019.16C640.246 993.471 691.609 979.007 718.297 975.797Z"/><path d="M694.17 951.802C697.542 951.739 706.609 950.971 708.084 954.174C705.079 959.757 677.557 962.851 669.462 966.282C660.97 969.883 657.08 971.857 649.04 976.44C646.275 978.348 644.609 980.07 641.385 979.966C639.136 978.561 639.893 979.508 638.995 977.053C640.745 959.348 680.368 952.698 694.17 951.802Z"/><path d="M307.855 760.802C322.204 760.692 333.616 762.334 346.754 768.559C351.845 770.601 363.77 777.252 359.141 784.154C355.26 789.941 336.745 786.696 330.426 786.288C312.809 785.151 295.228 783.442 277.648 785.971C268.692 786.438 234.865 794.914 230.844 793.719C229.829 793.417 230.128 793.375 229.609 792.249C230.939 785.929 240.005 781.52 244.989 778.545C264.52 766.889 285.485 762.694 307.855 760.802Z"/><path d="M329.679 874.843C346.655 872.567 369.986 881.343 380.406 895.504C381.907 897.545 383.758 901.784 383.194 904.348L381.923 905.056C369.567 894.69 359.275 890.924 344.325 885.238C341.097 884.011 329.588 880.421 327.579 878.72C327.986 876.252 327.853 877.023 329.679 874.843Z"/><path d="M263.359 1077.11C266.791 1077.35 268.604 1077.7 270.145 1080.96C268.96 1082.85 269.473 1082.24 266.579 1082.95C264.026 1082.91 260.472 1083.41 258.975 1081.18C259.9 1079.03 261.366 1078.42 263.359 1077.11Z"/><defs><linearGradient id="gradient_0" gradientUnits="userSpaceOnUse" x1="817.17865" y1="875.79755" x2="808.55701" y2="879.49353"><stop offset="0" stop-color="white" stop-opacity="0"/><stop offset="1" stop-color="#EFEDEF" stop-opacity="0.050980393"/></linearGradient></defs><path fill="url(#gradient_0)" d="M815.526 882.361C814.485 881.724 806.754 875.052 805.197 873.753L805.89 872.099L805.442 871.972L804.573 873.03L804.909 871.863L804.332 872.67L804.152 872.156L804.681 871.998C808.513 873.575 811.654 875.52 815.234 877.582L815.605 878.036C817.19 879.951 817.517 880.233 819.446 881.77L819.361 882.472C817.483 883.002 817.475 882.822 815.526 882.361Z"/><path fill="#F0ECEC" fill-opacity="0.019607844" d="M900.005 159.872C898.456 153.567 899.444 141.272 900.26 134.815C901.409 137.593 902.028 140.03 902.545 143.008C901.309 149.314 900.602 153.502 900.005 159.872Z"/><defs><linearGradient id="gradient_1" gradientUnits="userSpaceOnUse" x1="1350.9729" y1="476.92285" x2="1349.2671" y2="473.7916"><stop offset="0" stop-color="#E5E1DE" stop-opacity="0"/><stop offset="1" stop-color="#D2CDC9" stop-opacity="0.062745102"/></linearGradient></defs><path fill="url(#gradient_1)" d="M1348.53 475.885C1350.03 474.334 1351.67 472.243 1353.63 471.658C1353.86 473.373 1353.54 473.55 1352.8 475.193L1350.03 477.981L1349.02 477.867L1348.53 475.885Z"/><path fill="#A59C95" fill-opacity="0.1882353" d="M819.375 221.932L821.84 222.135L822.265 222.784C818.081 223.44 816.11 223.398 811.87 222.694C814.648 222.547 816.613 222.312 819.375 221.932Z"/><defs><linearGradient id="gradient_2" gradientUnits="userSpaceOnUse" x1="1254.6732" y1="552.53802" x2="1252.515" y2="554.5968"><stop offset="0" stop-color="#FFFEFF" stop-opacity="0"/><stop offset="1" stop-color="#EFEDEF" stop-opacity="0.05882353"/></linearGradient></defs><path fill="url(#gradient_2)" d="M1254.86 556.367C1253.05 555.045 1251.27 553.685 1249.52 552.286L1249.53 551.495L1252.17 551.731C1253.92 552.578 1254.46 552.778 1256.04 553.951C1255.66 555.725 1256.11 554.961 1254.86 556.367Z"/></svg>